# xmcd
#
# Track frame offsets:
#	150
#	14466
#	26909
#	40414
#	59053
#	67718
#	78815
#	92221
#	105686
#	118773
#	128549
#	138072
#	149951
#	162452
#	174566
#	185449
#	199752
#	215012
#	225359
#	234930
#	246416
#	257650
#	272082
#	285221
#	295496
#	305244
#	315031
#	326620
#	347366
#	359645
#	372860
#	382790
#
# Disc length: 5254 seconds
#
# Revision: 0
# Processed by: cddbd v1.5.2PL0 Copyright (c) Steve Scherf et al.
# Submitted via: dBpowerAMP V4.0
#
DISCID=e1148420
DTITLE=Various Artist - Smoke That Cigarette-Pleasure To Burn
DYEAR=2010
DGENRE=
TTITLE0=JIMMY MARTIN: I Can't Quit Cigarettes 
TTITLE1=MARTY ROBBINS: Cigarettes And Coffee Blues 
TTITLE2=LES PAUL and MARY FORD: Smoke Rings 
TTITLE3=JERRY REED: Another Puff 
TTITLE4=GLEN GLENN: One Cup Of Coffee And A Cigarette 
TTITLE5=LILLIAN LEACH and MELLOWS: Smoke From Your Cigarette 
TTITLE6=JOE and ROSE LEE MAPHIS: Dim Lights, Thick Smoke (And Loud, Loud Music) 
TTITLE7=REV. J. M. GATES: Smoking Woman In The Street 
TTITLE8=PATTI PAGE: While A Cigarette Was Burning 
TTITLE9=ROGER MILLER: Dad Blame Anything A Man Can't Quit 
TTITLE10=AUTRY INMAN: Does Your Sweetheart Seem Different Lately 
TTITLE11=JOHNNIE RAY: Coffee And Cigarettes (Thinking It Over) 
TTITLE12=SLIM DUSTY: Sad Cigarette 
TTITLE13=BOBBY EDWARDS: You're The Reason 
TTITLE14=BOBBY EDWARDS: You're The Reason 
TTITLE15=PEGGY LEE WITH DAVE BARBOUR AND HIS ORCHESTRA: Don't Smoke In Bed 
TTITLE16=BAKER KNIGHT: Smoke 
TTITLE17=PATSY CLINE: Three Cigarettes In An Ashtray 
TTITLE18=PAUL CLAYTON: My Last Cigarette 
TTITLE19=HOMER and JETHRO: Are You Kissing More Now (But Enjoying It Less) 
TTITLE20=BILLY WALKER: Down To My Last Cigarette 
TTITLE21=FRANK SINATRA: These Foolish Things 
TTITLE22=THE SONS OF THE PIONEERS: Cigareetes, Whusky And Wild Women 
TTITLE23=BONNIE GUITAR: Three On A Match 
TTITLE24=CURTIS GORDON: Caffeine And Nicotine 
TTITLE25=WILF CARTER: What Cigarette Is Best 
TTITLE26=BILL MACK: The Smoke, The Bottle And The Wine 
TTITLE27=TOMMY COLLINS: Cigarette Milner 
TTITLE28=LITTLE JIMMIE DICKENS: Twenty Cigarettes 
TTITLE29=TEX WILLIAMS AND HIS WESTERN CARAVAN: Smoke! Smoke! Smoke! (That Cigarette) 
TTITLE30=DRAGNET ADVERTISEMENT (MARCH 20, 1952) 
TTITLE31=RICHARD DIAMOND ADVERTISEMENT (FEBRUARY 2, 1951) 
EXTD=
EXTT0=
EXTT1=
EXTT2=
EXTT3=
EXTT4=
EXTT5=
EXTT6=
EXTT7=
EXTT8=
EXTT9=
EXTT10=
EXTT11=
EXTT12=
EXTT13=
EXTT14=
EXTT15=
EXTT16=
EXTT17=
EXTT18=
EXTT19=
EXTT20=
EXTT21=
EXTT22=
EXTT23=
EXTT24=
EXTT25=
EXTT26=
EXTT27=
EXTT28=
EXTT29=
EXTT30=
EXTT31=
PLAYORDER=
